<mxfile host="65bd71144e" modified="2021-02-21T23:05:09.624Z" agent="5.0 (Windows NT 10.0; Win64; x64) AppleWebKit/537.36 (KHTML, like Gecko) Code/1.53.2 Chrome/87.0.4280.141 Electron/11.2.1 Safari/537.36" version="14.2.4" etag="9xSmPVu664OXbq3dYLW3" type="embed">
    <diagram id="A9o6Iy7a7-UDnX6YxSRD" name="Page-1">
        <mxGraphModel dx="2159" dy="2229" grid="1" gridSize="10" guides="1" tooltips="1" connect="1" arrows="1" fold="1" page="1" pageScale="1" pageWidth="1169" pageHeight="1654" math="0" shadow="0">
            <root>
                <mxCell id="0"/>
                <mxCell id="1" parent="0"/>
                <mxCell id="2" value="46" style="rounded=1;whiteSpace=wrap;html=1;fontSize=18;" vertex="1" parent="1">
                    <mxGeometry x="420" y="200" width="100" height="60" as="geometry"/>
                </mxCell>
                <mxCell id="3" value="data" style="rounded=1;whiteSpace=wrap;html=1;fontSize=20;" vertex="1" parent="1">
                    <mxGeometry x="520" y="200" width="100" height="60" as="geometry"/>
                </mxCell>
                <mxCell id="27" style="edgeStyle=orthogonalEdgeStyle;rounded=0;orthogonalLoop=1;jettySize=auto;html=1;fontSize=18;" edge="1" parent="1" source="4">
                    <mxGeometry relative="1" as="geometry">
                        <mxPoint x="670" y="380" as="targetPoint"/>
                    </mxGeometry>
                </mxCell>
                <mxCell id="4" value="undolog" style="rounded=1;whiteSpace=wrap;html=1;fontSize=19;" vertex="1" parent="1">
                    <mxGeometry x="620" y="200" width="100" height="60" as="geometry"/>
                </mxCell>
                <mxCell id="6" value="m_ids" style="rounded=1;whiteSpace=wrap;html=1;fontSize=18;" vertex="1" parent="1">
                    <mxGeometry x="340" y="60" width="120" height="60" as="geometry"/>
                </mxCell>
                <mxCell id="7" value="min_tx_id" style="rounded=1;whiteSpace=wrap;html=1;fontSize=20;" vertex="1" parent="1">
                    <mxGeometry x="460" y="60" width="120" height="60" as="geometry"/>
                </mxCell>
                <mxCell id="8" value="max_tx_id" style="rounded=1;whiteSpace=wrap;html=1;fontSize=19;" vertex="1" parent="1">
                    <mxGeometry x="580" y="60" width="120" height="60" as="geometry"/>
                </mxCell>
                <mxCell id="9" value="creator_tx_id" style="rounded=1;whiteSpace=wrap;html=1;fontSize=19;" vertex="1" parent="1">
                    <mxGeometry x="700" y="60" width="130" height="60" as="geometry"/>
                </mxCell>
                <mxCell id="11" value="readview" style="rounded=1;whiteSpace=wrap;html=1;fontSize=18;opacity=10;fillColor=#d80073;strokeColor=#A50040;fontColor=#ffffff;verticalAlign=top;align=left;" vertex="1" parent="1">
                    <mxGeometry x="300" y="30" width="570" height="120" as="geometry"/>
                </mxCell>
                <mxCell id="18" value="" style="edgeStyle=orthogonalEdgeStyle;rounded=0;orthogonalLoop=1;jettySize=auto;html=1;fontSize=18;" edge="1" parent="1" source="13" target="17">
                    <mxGeometry relative="1" as="geometry"/>
                </mxCell>
                <mxCell id="19" value="" style="edgeStyle=orthogonalEdgeStyle;rounded=0;orthogonalLoop=1;jettySize=auto;html=1;fontSize=18;" edge="1" parent="1" source="13" target="2">
                    <mxGeometry relative="1" as="geometry"/>
                </mxCell>
                <mxCell id="45" style="edgeStyle=orthogonalEdgeStyle;rounded=0;orthogonalLoop=1;jettySize=auto;html=1;entryX=0.5;entryY=1;entryDx=0;entryDy=0;fontSize=18;" edge="1" parent="1" source="13" target="29">
                    <mxGeometry relative="1" as="geometry">
                        <Array as="points">
                            <mxPoint x="245" y="550"/>
                            <mxPoint x="670" y="550"/>
                        </Array>
                    </mxGeometry>
                </mxCell>
                <mxCell id="13" value="tx_a 读 id45" style="rounded=1;whiteSpace=wrap;html=1;fontSize=18;" vertex="1" parent="1">
                    <mxGeometry x="170" y="200" width="150" height="60" as="geometry"/>
                </mxCell>
                <mxCell id="14" value="45" style="rounded=1;whiteSpace=wrap;html=1;fontSize=18;" vertex="1" parent="1">
                    <mxGeometry x="-390" y="200" width="120" height="60" as="geometry"/>
                </mxCell>
                <mxCell id="15" value="45" style="rounded=1;whiteSpace=wrap;html=1;fontSize=20;" vertex="1" parent="1">
                    <mxGeometry x="-270" y="200" width="120" height="60" as="geometry"/>
                </mxCell>
                <mxCell id="16" value="46" style="rounded=1;whiteSpace=wrap;html=1;fontSize=19;" vertex="1" parent="1">
                    <mxGeometry x="-150" y="200" width="120" height="60" as="geometry"/>
                </mxCell>
                <mxCell id="17" value="45" style="rounded=1;whiteSpace=wrap;html=1;fontSize=19;" vertex="1" parent="1">
                    <mxGeometry x="-30" y="200" width="130" height="60" as="geometry"/>
                </mxCell>
                <mxCell id="20" value="" style="edgeStyle=orthogonalEdgeStyle;rounded=0;orthogonalLoop=1;jettySize=auto;html=1;fontSize=18;" edge="1" parent="1" source="21" target="25">
                    <mxGeometry relative="1" as="geometry"/>
                </mxCell>
                <mxCell id="26" style="edgeStyle=orthogonalEdgeStyle;rounded=0;orthogonalLoop=1;jettySize=auto;html=1;entryX=0.602;entryY=1.07;entryDx=0;entryDy=0;entryPerimeter=0;fontSize=18;" edge="1" parent="1" source="21" target="2">
                    <mxGeometry relative="1" as="geometry"/>
                </mxCell>
                <mxCell id="21" value="tx_a 写 id46" style="rounded=1;whiteSpace=wrap;html=1;fontSize=18;" vertex="1" parent="1">
                    <mxGeometry x="170" y="340" width="150" height="60" as="geometry"/>
                </mxCell>
                <mxCell id="22" value="45，46" style="rounded=1;whiteSpace=wrap;html=1;fontSize=18;" vertex="1" parent="1">
                    <mxGeometry x="-390" y="340" width="120" height="60" as="geometry"/>
                </mxCell>
                <mxCell id="23" value="45" style="rounded=1;whiteSpace=wrap;html=1;fontSize=20;" vertex="1" parent="1">
                    <mxGeometry x="-270" y="340" width="120" height="60" as="geometry"/>
                </mxCell>
                <mxCell id="24" value="47" style="rounded=1;whiteSpace=wrap;html=1;fontSize=19;" vertex="1" parent="1">
                    <mxGeometry x="-150" y="340" width="120" height="60" as="geometry"/>
                </mxCell>
                <mxCell id="25" value="46" style="rounded=1;whiteSpace=wrap;html=1;fontSize=19;" vertex="1" parent="1">
                    <mxGeometry x="-30" y="340" width="130" height="60" as="geometry"/>
                </mxCell>
                <mxCell id="29" value="37" style="rounded=1;whiteSpace=wrap;html=1;fontSize=18;" vertex="1" parent="1">
                    <mxGeometry x="620" y="380" width="100" height="60" as="geometry"/>
                </mxCell>
                <mxCell id="30" value="data" style="rounded=1;whiteSpace=wrap;html=1;fontSize=20;" vertex="1" parent="1">
                    <mxGeometry x="720" y="380" width="100" height="60" as="geometry"/>
                </mxCell>
                <mxCell id="31" value="undolog" style="rounded=1;whiteSpace=wrap;html=1;fontSize=19;" vertex="1" parent="1">
                    <mxGeometry x="820" y="380" width="100" height="60" as="geometry"/>
                </mxCell>
                <mxCell id="32" value="tx_id" style="rounded=1;whiteSpace=wrap;html=1;fontSize=18;" vertex="1" parent="1">
                    <mxGeometry x="760" y="140" width="100" height="60" as="geometry"/>
                </mxCell>
                <mxCell id="33" value="data" style="rounded=1;whiteSpace=wrap;html=1;fontSize=20;" vertex="1" parent="1">
                    <mxGeometry x="860" y="140" width="100" height="60" as="geometry"/>
                </mxCell>
                <mxCell id="34" value="undolog" style="rounded=1;whiteSpace=wrap;html=1;fontSize=19;" vertex="1" parent="1">
                    <mxGeometry x="960" y="140" width="100" height="60" as="geometry"/>
                </mxCell>
                <mxCell id="35" value="37" style="rounded=1;whiteSpace=wrap;html=1;fontSize=18;" vertex="1" parent="1">
                    <mxGeometry x="420" y="-40" width="100" height="60" as="geometry"/>
                </mxCell>
                <mxCell id="36" value="data" style="rounded=1;whiteSpace=wrap;html=1;fontSize=20;" vertex="1" parent="1">
                    <mxGeometry x="520" y="-40" width="100" height="60" as="geometry"/>
                </mxCell>
                <mxCell id="37" value="undolog" style="rounded=1;whiteSpace=wrap;html=1;fontSize=19;" vertex="1" parent="1">
                    <mxGeometry x="620" y="-40" width="100" height="60" as="geometry"/>
                </mxCell>
                <mxCell id="38" value="" style="edgeStyle=orthogonalEdgeStyle;rounded=0;orthogonalLoop=1;jettySize=auto;html=1;fontSize=18;" edge="1" parent="1" source="40" target="44">
                    <mxGeometry relative="1" as="geometry"/>
                </mxCell>
                <mxCell id="39" value="" style="edgeStyle=orthogonalEdgeStyle;rounded=0;orthogonalLoop=1;jettySize=auto;html=1;fontSize=18;" edge="1" parent="1" source="40" target="35">
                    <mxGeometry relative="1" as="geometry"/>
                </mxCell>
                <mxCell id="40" value="tx_a 读 id45" style="rounded=1;whiteSpace=wrap;html=1;fontSize=18;" vertex="1" parent="1">
                    <mxGeometry x="170" y="-40" width="150" height="60" as="geometry"/>
                </mxCell>
                <mxCell id="41" value="45" style="rounded=1;whiteSpace=wrap;html=1;fontSize=18;" vertex="1" parent="1">
                    <mxGeometry x="-390" y="-40" width="120" height="60" as="geometry"/>
                </mxCell>
                <mxCell id="42" value="45" style="rounded=1;whiteSpace=wrap;html=1;fontSize=20;" vertex="1" parent="1">
                    <mxGeometry x="-270" y="-40" width="120" height="60" as="geometry"/>
                </mxCell>
                <mxCell id="43" value="46" style="rounded=1;whiteSpace=wrap;html=1;fontSize=19;" vertex="1" parent="1">
                    <mxGeometry x="-150" y="-40" width="120" height="60" as="geometry"/>
                </mxCell>
                <mxCell id="44" value="45" style="rounded=1;whiteSpace=wrap;html=1;fontSize=19;" vertex="1" parent="1">
                    <mxGeometry x="-30" y="-40" width="130" height="60" as="geometry"/>
                </mxCell>
                <mxCell id="46" value="46都不在我的readview 的 m_ids，并且45在46之前，所以肯定是之后修改的，我肯定不能都，所以顺着undolog链，找，37不在我的里面，并且在之前， 所以肯定可以读。" style="text;html=1;align=center;verticalAlign=middle;resizable=0;points=[];autosize=1;fontSize=18;" vertex="1" parent="1">
                    <mxGeometry x="-205" y="495" width="1370" height="30" as="geometry"/>
                </mxCell>
            </root>
        </mxGraphModel>
    </diagram>
</mxfile>